Coordinates
version=1
nRows=25
nColumns=33
inDegrees=yes

Units are S.I. units (second, meters, Newtons, ...)
Angles are in degrees.

endheader
time	ground_thorax_rot_x	ground_thorax_rot_y	ground_thorax_rot_z	ground_thorax_tx	ground_thorax_ty	ground_thorax_tz	clav_prot_r	clav_elev_r	scapula_abduction_r	scapula_elevation_r	scapula_upward_rot_r	scapula_winging_r	shoulder_elv_r	plane_of_elev_r	axial_rot_r	elbow_flexion_r	pro_sup_r	wrist_flex_r	wrist_dev_r	clav_prot_l	clav_elev_l	scapula_abduction_l	scapula_elevation_l	scapula_upward_rot_l	scapula_winging_l	shoulder_elv_l	plane_of_elev_l	axial_rot_l	elbow_flexion_l	pro_sup_l	wrist_flex_l	wrist_dev_l	
3.3100	-39.138928	-3.451935	4.071524	-72.753460	815.754790	1.335760	6.166662	-45.000000	44.999976	-45.000000	-11.696625	-2253.168212	-4255.163336	29.867549	71.770778	2530.310211	13.501944	18.455267	11.433179	17.426088	42.238986	-44.999996	-43.896267	-33.611884	2239.640198	-4973.612450	24.333662	-24.757189	1807.268394	4.020493	14.838400	-19.133581	
3.3200	-38.930996	-3.817595	4.311747	-70.919582	812.456618	1.800551	6.426096	-45.000000	44.999958	-45.000000	-12.356090	-2252.923023	-4255.364982	29.736072	72.048706	2530.141250	12.798598	18.210249	11.517776	17.342658	41.882503	-44.999992	-43.347762	-33.670145	2239.654681	-4973.851400	24.396683	-24.791434	1806.995598	4.157458	14.835534	-18.972409	
3.3300	-38.721990	-4.188115	4.550816	-69.150133	809.255036	2.263034	6.686595	-45.000000	44.999924	-45.000000	-13.017785	-2252.679703	-4255.560775	29.602275	72.380805	2529.965875	12.050384	17.963626	11.604658	17.251375	41.519941	-44.999986	-42.810613	-33.717524	2239.659944	-4974.092245	24.445740	-24.847440	1806.728331	4.326985	14.819004	-18.817896	
3.3400	-38.517914	-4.462248	4.661143	-67.516559	806.255795	2.725521	6.824196	-45.000000	44.999864	-45.000000	-13.440173	-2252.469361	-4255.766319	29.446289	72.859257	2529.775515	11.197221	17.732985	11.685823	17.123015	41.146517	-44.999975	-42.240870	-33.515012	2239.650002	-4974.292189	24.410182	-24.869314	1806.458620	4.534954	14.835447	-18.652769	
3.3500	-38.321583	-4.690267	4.697590	-66.034355	803.481941	3.180687	6.898054	-45.000000	44.999757	-45.000000	-13.732350	-2252.285540	-4255.970068	29.276235	73.442985	2529.578702	10.257814	17.515633	11.765941	16.976757	40.785377	-44.999954	-41.671057	-33.187072	2239.640641	-4974.469866	24.338139	-24.877136	1806.190823	4.805832	14.839977	-18.492340	
3.3600	-38.134947	-4.883932	4.666431	-64.729622	800.970952	3.620081	6.915789	-45.000000	44.999564	-45.000000	-13.917423	-2252.124940	-4256.163013	29.093889	74.117840	2529.384146	9.256100	17.313339	11.850456	16.824298	40.425496	-44.999918	-41.115351	-32.754233	2239.630834	-4974.627555	24.231424	-24.858881	1805.928995	5.154075	14.823680	-18.340581	
3.3700	-37.961812	-5.081979	4.611974	-63.614183	798.737085	4.031785	6.932015	-45.000000	44.999219	-45.000000	-14.083227	-2251.998051	-4256.345624	28.918332	74.826785	2529.198682	8.249518	17.127610	11.924272	16.659164	40.095288	-44.999854	-40.586322	-32.325750	2239.642249	-4974.756722	24.131276	-24.833507	1805.683973	5.596615	14.760907	-18.209628	
3.3800	-37.804414	-5.281059	4.525369	-62.693718	796.781437	4.402300	6.947333	-45.000000	44.998601	-45.000000	-14.227945	-2251.892036	-4256.506580	28.747815	75.510592	2529.035476	7.293621	16.961293	12.000467	16.534674	39.806360	-44.999738	-40.105893	-31.925120	2239.683817	-4974.883698	24.073624	-24.789219	1805.453650	6.140059	14.636961	-18.104268	
3.3900	-37.667942	-5.472370	4.399357	-61.974417	795.100217	4.718934	6.955588	-45.000000	44.997494	-45.000000	-14.343715	-2251.806151	-4256.652638	28.585432	76.143345	2528.893279	6.426948	16.814317	12.072402	16.451201	39.578300	-44.999531	-39.674883	-31.549859	2239.750189	-4974.991650	24.052773	-24.721669	1805.245475	6.789523	14.460356	-18.028259	
3.4000	-37.550977	-5.660958	4.240465	-61.462505	793.682421	4.970811	6.953872	-45.000000	44.995510	-45.000000	-14.447174	-2251.733238	-4256.778895	28.434682	76.731000	2528.775769	5.695979	16.688404	12.141403	16.387326	39.377210	-44.999161	-39.301209	-31.189259	2239.821429	-4975.084465	24.038025	-24.635301	1805.062532	7.534101	14.246917	-17.978771	
3.4100	-37.456020	-5.848232	4.057525	-61.164190	792.509758	5.150299	6.948530	-45.000000	44.991960	-45.000000	-14.548021	-2251.676356	-4256.891310	28.297646	77.256205	2528.683168	5.131058	16.587411	12.201861	16.340607	39.226874	-44.998496	-38.985093	-30.862081	2239.902858	-4975.156992	24.035711	-24.546307	1804.909357	8.358412	13.997500	-17.958575	
3.4200	-37.380357	-6.035298	3.855912	-61.085813	791.558293	5.253659	6.935529	-45.000000	44.985592	-45.000000	-14.651851	-2251.631109	-4256.982338	28.171180	77.722617	2528.619332	4.751887	16.515766	12.262330	16.313505	39.117665	-44.997307	-38.733466	-30.570557	2239.990237	-4975.224402	24.039870	-24.457354	1804.786562	9.237625	13.715519	-17.966100	
3.4300	-37.327647	-6.217991	3.639039	-61.234107	790.801096	5.281481	6.913932	-45.000000	44.974207	-45.000000	-14.762620	-2251.595815	-4257.062961	28.053064	78.132524	2528.575481	4.557115	16.471981	12.318663	16.308062	39.062622	-44.995172	-38.549662	-30.324188	2240.071650	-4975.272894	24.040849	-24.374002	1804.699762	10.152122	13.425227	-18.001891	
3.4400	-37.292522	-6.422184	3.444988	-61.616247	790.210793	5.238233	6.910282	-45.000000	44.953753	-45.000000	-14.947130	-2251.578378	-4257.129919	27.956697	78.508857	2528.548742	4.562729	16.456197	12.360825	16.283277	39.031118	-44.991362	-38.427086	-30.163509	2240.141646	-4975.292873	24.020656	-24.312761	1804.651110	11.076613	13.138355	-18.061385	
3.4500	-37.279335	-6.633382	3.265856	-62.239919	789.761599	5.131566	6.922316	-45.000000	44.917283	-45.000000	-15.186455	-2251.580301	-4257.192243	27.878303	78.834769	2528.537312	4.762696	16.469305	12.380640	16.269828	39.047433	-44.984497	-38.371751	-30.101812	2240.203576	-4975.287681	24.006326	-24.283393	1804.633764	11.996171	12.879771	-18.142556	
3.4600	-37.284184	-6.851278	3.108755	-63.113243	789.430825	4.971035	6.942543	-45.000000	44.851480	-45.000000	-15.497304	-2251.596433	-4257.238117	27.819817	79.131763	2528.542307	5.143527	16.509114	12.384407	16.276074	39.098700	-44.972313	-38.374980	-30.135760	2240.260494	-4975.264934	23.997190	-24.279774	1804.639900	12.890843	12.640544	-18.238611	
3.4700	-37.311566	-7.084684	2.991948	-64.244364	789.198650	4.766870	6.970960	-45.000000	44.734937	-45.000000	-15.917555	-2251.616266	-4257.270475	27.778663	79.413238	2528.560988	5.688725	16.571680	12.356683	16.295895	39.172540	-44.950174	-38.448928	-30.285125	2240.294879	-4975.221224	23.987728	-24.315666	1804.667764	13.748873	12.462116	-18.346541	
3.4800	-37.359500	-7.347237	2.945582	-65.640928	789.048085	4.528642	6.999403	-45.000000	44.522462	-45.000000	-16.514015	-2251.619899	-4257.270424	27.756078	79.702541	2528.597405	6.383922	16.651693	12.315679	16.343927	39.254574	-44.911389	-38.584689	-30.555516	2240.309801	-4975.165520	23.975390	-24.378193	1804.710827	14.538190	12.299760	-18.456708	
3.4900	-37.437853	-7.678949	3.025318	-67.309471	788.965148	4.264203	7.030401	-45.000000	44.162004	-45.000000	-17.393555	-2251.584812	-4257.235928	27.751019	79.985646	2528.653235	7.218354	16.746004	12.228020	16.420357	39.340206	-44.839482	-38.806076	-31.011507	2240.273313	-4975.079624	23.952268	-24.476445	1804.772904	15.245769	12.215816	-18.569819	
3.5000	-37.551275	-8.115326	3.280041	-69.255116	788.939356	3.978865	7.075602	-45.000000	43.615247	-45.000000	-18.650964	-2251.493788	-4257.154634	27.765559	80.257634	2528.728496	8.188486	16.847551	12.112416	16.545413	39.435689	-44.717464	-39.121640	-31.704993	2240.176310	-4974.965852	23.924202	-24.597295	1804.850151	15.843881	12.143421	-18.676460	
3.5100	-37.728730	-8.770269	3.850733	-71.480761	788.963559	3.675165	7.167009	-45.000000	42.746608	-45.000000	-20.604057	-2251.279311	-4257.011889	27.825932	80.470169	2528.823399	9.356005	16.954830	11.947950	16.745778	39.540083	-44.479945	-39.622162	-32.851718	2239.920505	-4974.777920	23.918734	-24.660277	1804.936338	16.313148	12.119333	-18.775442	
3.5200	-37.965099	-9.627245	4.709927	-73.987038	789.033772	3.353044	7.305925	-45.000000	41.586198	-45.000000	-23.189477	-2250.960625	-4256.808502	27.932309	80.650720	2528.932754	10.686735	17.060222	11.771589	17.015311	39.664948	-44.119470	-40.295652	-34.402307	2239.523406	-4974.534952	23.947834	-24.677004	1805.019342	16.633757	12.061456	-18.856925	
3.5300	-38.251557	-10.663533	5.812832	-76.771986	789.148780	3.010586	7.489157	-45.000000	40.198887	-45.000000	-26.294820	-2250.572239	-4256.554074	28.079254	80.816657	2529.050067	12.112663	17.159470	11.569894	17.328388	39.792543	-43.640694	-41.125030	-36.296170	2238.993501	-4974.228858	24.000053	-24.665155	1805.100423	16.806931	12.025530	-18.925006	
3.5400	-38.553094	-11.734573	6.959702	-79.831416	789.309609	2.644982	7.675955	-45.000000	38.792240	-45.000000	-29.476302	-2250.210788	-4256.276509	28.231494	81.028401	2529.161926	13.481835	17.243920	11.383385	17.630077	39.931897	-43.107954	-42.007734	-38.249427	2238.450365	-4973.924532	24.062650	-24.724181	1805.176054	16.847253	11.949952	-18.974954	
3.5500	-38.850776	-12.791904	8.084589	-83.158948	789.518969	2.253599	7.860567	-45.000000	37.435338	-45.000000	-32.587275	-2249.910064	-4255.982790	28.380857	81.307444	2529.262847	14.723422	17.311568	11.206114	17.905390	40.056564	-42.548122	-42.893054	-40.169289	2237.927262	-4973.615114	24.118583	-24.857466	1805.253505	16.782828	11.876583	-19.014488	
